<svg width="192" height="192" viewBox="0 0 192 192" fill="none" xmlns="http://www.w3.org/2000/svg">
<path d="M82.144 74.288C82.272 76.336 82.4427 78.064 82.656 79.472C82.912 80.8373 83.2107 82.16 83.552 83.44C83.8933 84.6773 84.2987 86.0213 84.768 87.472C85.2373 88.88 85.7707 90.6507 86.368 92.784C85.9413 93.6373 85.5573 94.7253 85.216 96.048C84.9173 97.328 84.64 98.672 84.384 100.08C84.1707 101.488 84 102.875 83.872 104.24C83.7867 105.605 83.744 106.8 83.744 107.824C83.744 108.635 83.7653 109.424 83.808 110.192C83.8933 110.96 84.0427 111.685 84.256 112.368C81.7813 112.837 79.6267 113.904 77.792 115.568C75.9573 117.189 74.144 119.152 72.352 121.456C68.896 119.963 64.8853 118.896 60.32 118.256C55.7973 117.659 50.9547 117.36 45.792 117.36C46.2613 117.104 46.8587 116.635 47.584 115.952C48.3093 115.227 49.0133 114.416 49.696 113.52C50.3787 112.581 50.9547 111.621 51.424 110.64C51.936 109.616 52.192 108.677 52.192 107.824C52.192 106.971 52.1707 106.011 52.128 104.944C52.128 103.877 52.0427 102.789 51.872 101.68C51.744 100.571 51.5093 99.504 51.168 98.48C50.8693 97.4133 50.4427 96.496 49.888 95.728C50.3573 95.216 50.7413 94.448 51.04 93.424C51.3387 92.3573 51.552 91.2053 51.68 89.968C51.8507 88.688 51.9573 87.3867 52 86.064C52.0427 84.6987 52.064 83.4613 52.064 82.352C52.064 80.9867 51.9573 79.8133 51.744 78.832C51.5307 77.8507 51.1467 76.9547 50.592 76.144C50.08 75.2907 49.3547 74.4587 48.416 73.648C47.52 72.8373 46.368 71.8987 44.96 70.832C47.9893 70.832 50.6987 70.832 53.088 70.832C55.52 70.7893 57.76 70.7467 59.808 70.704C61.856 70.6187 63.776 70.512 65.568 70.384C67.36 70.2133 69.152 69.9787 70.944 69.68C72.2667 70.4907 73.952 71.3227 76 72.176C78.048 73.0293 80.096 73.7333 82.144 74.288ZM74.976 108.784C74.976 107.845 75.04 106.608 75.168 105.072C75.296 103.493 75.4667 101.915 75.68 100.336C75.936 98.7147 76.2133 97.2 76.512 95.792C76.8533 94.384 77.216 93.3387 77.6 92.656C77.3013 91.8027 76.96 90.736 76.576 89.456C76.192 88.1333 75.808 86.768 75.424 85.36C75.04 83.9093 74.6987 82.48 74.4 81.072C74.1013 79.6213 73.888 78.3413 73.76 77.232C73.0773 77.232 72.2027 77.2747 71.136 77.36C70.112 77.4027 68.9813 77.5093 67.744 77.68C66.5493 77.808 65.3333 78 64.096 78.256C62.9013 78.4693 61.792 78.7467 60.768 79.088C60.6827 81.008 60.6187 83.2267 60.576 85.744C60.5333 88.2187 60.512 90.864 60.512 93.68C60.512 96.4107 60.5547 99.2907 60.64 102.32C60.768 105.307 60.96 108.4 61.216 111.6C61.6427 111.728 62.1973 111.877 62.88 112.048C63.6053 112.219 64.352 112.389 65.12 112.56C65.888 112.731 66.6347 112.901 67.36 113.072C68.128 113.2 68.7893 113.307 69.344 113.392C69.9413 112.411 70.752 111.515 71.776 110.704C72.8 109.893 73.8667 109.253 74.976 108.784ZM121.846 109.68C121.632 105.456 121.462 101.403 121.333 97.52C121.248 93.6373 121.163 90.2027 121.078 87.216C121.035 84.2293 120.992 81.84 120.95 80.048C120.95 78.256 120.95 77.3387 120.95 77.296C120.736 74.6933 119.392 72.9013 116.918 71.92C117.344 71.9627 117.75 71.984 118.134 71.984C118.56 71.984 118.987 71.984 119.414 71.984C121.334 71.984 123.083 71.8987 124.662 71.728C126.283 71.5147 127.755 71.3013 129.078 71.088C130.4 70.8747 131.595 70.6827 132.662 70.512C133.771 70.2987 134.795 70.192 135.734 70.192C136.246 70.192 136.736 70.256 137.206 70.384C134.646 72.2187 132.662 74.224 131.254 76.4C129.888 78.5333 129.206 80.944 129.206 83.632C129.206 86.7893 130.251 90.3733 132.342 94.384C131.36 96.8587 130.55 99.5253 129.91 102.384C129.312 105.243 129.014 108.101 129.014 110.96C129.014 112.197 129.056 113.627 129.142 115.248C129.27 116.827 129.483 118.384 129.782 119.92C131.062 121.285 132.192 122.352 133.174 123.12C134.198 123.888 135.115 124.464 135.926 124.848C136.736 125.232 137.483 125.488 138.166 125.616C138.891 125.744 139.595 125.851 140.278 125.936L138.614 121.712C140.064 122.523 141.515 123.291 142.966 124.016C144.416 124.741 145.91 125.381 147.446 125.936C148.982 126.491 150.582 126.917 152.246 127.216C153.952 127.557 155.766 127.728 157.686 127.728C158.966 127.728 160.288 127.685 161.654 127.6C163.062 127.515 164.534 127.365 166.07 127.152C162.315 128.645 158.774 129.712 155.446 130.352C152.16 131.035 149.046 131.376 146.102 131.376C142.347 131.376 138.87 130.843 135.67 129.776C132.512 128.709 129.568 127.259 126.838 125.424C124.15 123.632 121.675 121.541 119.414 119.152C117.195 116.805 115.147 114.331 113.27 111.728C111.435 109.083 109.771 106.416 108.278 103.728C106.827 101.04 105.526 98.48 104.374 96.048V102.576C104.374 105.221 104.459 107.44 104.63 109.232C104.8 111.024 105.078 112.581 105.462 113.904C105.846 115.227 106.336 116.4 106.934 117.424C107.531 118.405 108.256 119.408 109.11 120.432C108.171 120.176 107.339 119.92 106.614 119.664C105.931 119.408 105.248 119.109 104.566 118.768C103.926 118.427 103.243 118 102.518 117.488C101.835 116.976 101.024 116.336 100.086 115.568C98.9335 117.616 97.3975 119.387 95.4775 120.88C93.5575 122.373 90.9762 123.653 87.7335 124.72C89.0135 123.483 90.2082 122.075 91.3175 120.496C92.4268 118.96 93.3868 117.317 94.1975 115.568C95.0508 113.776 95.7122 111.941 96.1815 110.064C96.6935 108.187 96.9495 106.288 96.9495 104.368C96.9495 102.576 96.7148 100.848 96.2455 99.184C95.8188 97.52 95.0935 95.92 94.0695 94.384C96.1602 90.3733 97.2055 86.7893 97.2055 83.632C97.2055 80.944 96.5015 78.5333 95.0935 76.4C93.7282 74.224 91.7655 72.2187 89.2055 70.384C89.6322 70.256 90.1228 70.192 90.6775 70.192C91.5308 70.192 92.4908 70.2987 93.5575 70.512C94.6668 70.6827 95.8615 70.8747 97.1415 71.088C98.4642 71.3013 99.8722 71.5147 101.366 71.728C102.902 71.8987 104.544 71.984 106.294 71.984C106.72 71.984 107.126 71.984 107.51 71.984C107.936 71.984 108.363 71.9627 108.79 71.92C106.486 72.816 105.163 74.3947 104.822 76.656C105.59 78.576 106.507 80.7947 107.574 83.312C108.683 85.8293 109.899 88.4747 111.222 91.248C112.587 94.0213 114.059 96.8373 115.638 99.696C117.216 102.512 118.859 105.2 120.566 107.76L121.846 109.68Z" fill="white"/>
</svg>
