<svg width="512" height="512" viewBox="0 0 512 512" fill="none" xmlns="http://www.w3.org/2000/svg">
<path d="M226.36 199.72C226.68 204.84 227.107 209.16 227.64 212.68C228.28 216.093 229.027 219.4 229.88 222.6C230.733 225.693 231.747 229.053 232.92 232.68C234.093 236.2 235.427 240.627 236.92 245.96C235.853 248.093 234.893 250.813 234.04 254.12C233.293 257.32 232.6 260.68 231.96 264.2C231.427 267.72 231 271.187 230.68 274.6C230.467 278.013 230.36 281 230.36 283.56C230.36 285.587 230.413 287.56 230.52 289.48C230.733 291.4 231.107 293.213 231.64 294.92C225.453 296.093 220.067 298.76 215.48 302.92C210.893 306.973 206.36 311.88 201.88 317.64C193.24 313.907 183.213 311.24 171.8 309.64C160.493 308.147 148.387 307.4 135.48 307.4C136.653 306.76 138.147 305.587 139.96 303.88C141.773 302.067 143.533 300.04 145.24 297.8C146.947 295.453 148.387 293.053 149.56 290.6C150.84 288.04 151.48 285.693 151.48 283.56C151.48 281.427 151.427 279.027 151.32 276.36C151.32 273.693 151.107 270.973 150.68 268.2C150.36 265.427 149.773 262.76 148.92 260.2C148.173 257.533 147.107 255.24 145.72 253.32C146.893 252.04 147.853 250.12 148.6 247.56C149.347 244.893 149.88 242.013 150.2 238.92C150.627 235.72 150.893 232.467 151 229.16C151.107 225.747 151.16 222.653 151.16 219.88C151.16 216.467 150.893 213.533 150.36 211.08C149.827 208.627 148.867 206.387 147.48 204.36C146.2 202.227 144.387 200.147 142.04 198.12C139.8 196.093 136.92 193.747 133.4 191.08C140.973 191.08 147.747 191.08 153.72 191.08C159.8 190.973 165.4 190.867 170.52 190.76C175.64 190.547 180.44 190.28 184.92 189.96C189.4 189.533 193.88 188.947 198.36 188.2C201.667 190.227 205.88 192.307 211 194.44C216.12 196.573 221.24 198.333 226.36 199.72ZM208.44 285.96C208.44 283.613 208.6 280.52 208.92 276.68C209.24 272.733 209.667 268.787 210.2 264.84C210.84 260.787 211.533 257 212.28 253.48C213.133 249.96 214.04 247.347 215 245.64C214.253 243.507 213.4 240.84 212.44 237.64C211.48 234.333 210.52 230.92 209.56 227.4C208.6 223.773 207.747 220.2 207 216.68C206.253 213.053 205.72 209.853 205.4 207.08C203.693 207.08 201.507 207.187 198.84 207.4C196.28 207.507 193.453 207.773 190.36 208.2C187.373 208.52 184.333 209 181.24 209.64C178.253 210.173 175.48 210.867 172.92 211.72C172.707 216.52 172.547 222.067 172.44 228.36C172.333 234.547 172.28 241.16 172.28 248.2C172.28 255.027 172.387 262.227 172.6 269.8C172.92 277.267 173.4 285 174.04 293C175.107 293.32 176.493 293.693 178.2 294.12C180.013 294.547 181.88 294.973 183.8 295.4C185.72 295.827 187.587 296.253 189.4 296.68C191.32 297 192.973 297.267 194.36 297.48C195.853 295.027 197.88 292.787 200.44 290.76C203 288.733 205.667 287.133 208.44 285.96ZM325.614 288.2C325.08 277.64 324.654 267.507 324.334 257.8C324.12 248.093 323.907 239.507 323.694 232.04C323.587 224.573 323.48 218.6 323.374 214.12C323.374 209.64 323.374 207.347 323.374 207.24C322.84 200.733 319.48 196.253 313.294 193.8C314.36 193.907 315.374 193.96 316.334 193.96C317.4 193.96 318.467 193.96 319.534 193.96C324.334 193.96 328.707 193.747 332.654 193.32C336.707 192.787 340.387 192.253 343.694 191.72C347 191.187 349.987 190.707 352.654 190.28C355.427 189.747 357.987 189.48 360.334 189.48C361.614 189.48 362.84 189.64 364.014 189.96C357.614 194.547 352.654 199.56 349.134 205C345.72 210.333 344.014 216.36 344.014 223.08C344.014 230.973 346.627 239.933 351.854 249.96C349.4 256.147 347.374 262.813 345.774 269.96C344.28 277.107 343.534 284.253 343.534 291.4C343.534 294.493 343.64 298.067 343.854 302.12C344.174 306.067 344.707 309.96 345.454 313.8C348.654 317.213 351.48 319.88 353.934 321.8C356.494 323.72 358.787 325.16 360.814 326.12C362.84 327.08 364.707 327.72 366.414 328.04C368.227 328.36 369.987 328.627 371.694 328.84L367.534 318.28C371.16 320.307 374.787 322.227 378.414 324.04C382.04 325.853 385.774 327.453 389.614 328.84C393.454 330.227 397.454 331.293 401.614 332.04C405.88 332.893 410.414 333.32 415.214 333.32C418.414 333.32 421.72 333.213 425.134 333C428.654 332.787 432.334 332.413 436.174 331.88C426.787 335.613 417.934 338.28 409.614 339.88C401.4 341.587 393.614 342.44 386.254 342.44C376.867 342.44 368.174 341.107 360.174 338.44C352.28 335.773 344.92 332.147 338.094 327.56C331.374 323.08 325.187 317.853 319.534 311.88C313.987 306.013 308.867 299.827 304.174 293.32C299.587 286.707 295.427 280.04 291.694 273.32C288.067 266.6 284.814 260.2 281.934 254.12V270.44C281.934 277.053 282.147 282.6 282.574 287.08C283 291.56 283.694 295.453 284.654 298.76C285.614 302.067 286.84 305 288.334 307.56C289.827 310.013 291.64 312.52 293.774 315.08C291.427 314.44 289.347 313.8 287.534 313.16C285.827 312.52 284.12 311.773 282.414 310.92C280.814 310.067 279.107 309 277.294 307.72C275.587 306.44 273.56 304.84 271.214 302.92C268.334 308.04 264.494 312.467 259.694 316.2C254.894 319.933 248.44 323.133 240.334 325.8C243.534 322.707 246.52 319.187 249.294 315.24C252.067 311.4 254.467 307.293 256.494 302.92C258.627 298.44 260.28 293.853 261.454 289.16C262.734 284.467 263.374 279.72 263.374 274.92C263.374 270.44 262.787 266.12 261.614 261.96C260.547 257.8 258.734 253.8 256.174 249.96C261.4 239.933 264.014 230.973 264.014 223.08C264.014 216.36 262.254 210.333 258.734 205C255.32 199.56 250.414 194.547 244.014 189.96C245.08 189.64 246.307 189.48 247.694 189.48C249.827 189.48 252.227 189.747 254.894 190.28C257.667 190.707 260.654 191.187 263.854 191.72C267.16 192.253 270.68 192.787 274.414 193.32C278.254 193.747 282.36 193.96 286.734 193.96C287.8 193.96 288.814 193.96 289.774 193.96C290.84 193.96 291.907 193.907 292.974 193.8C287.214 196.04 283.907 199.987 283.054 205.64C284.974 210.44 287.267 215.987 289.934 222.28C292.707 228.573 295.747 235.187 299.054 242.12C302.467 249.053 306.147 256.093 310.094 263.24C314.04 270.28 318.147 277 322.414 283.4L325.614 288.2Z" fill="white"/>
</svg>
