<svg width="155" height="35" viewBox="0 0 155 35" fill="none" xmlns="http://www.w3.org/2000/svg">
<path d="M19.072 4.144C19.136 5.168 19.2213 6.032 19.328 6.736C19.456 7.41866 19.6053 8.08 19.776 8.72C19.9467 9.33867 20.1493 10.0107 20.384 10.736C20.6187 11.44 20.8853 12.3253 21.184 13.392C20.9707 13.8187 20.7787 14.3627 20.608 15.024C20.4587 15.664 20.32 16.336 20.192 17.04C20.0853 17.744 20 18.4373 19.936 19.12C19.8933 19.8027 19.872 20.4 19.872 20.912C19.872 21.3173 19.8827 21.712 19.904 22.096C19.9467 22.48 20.0213 22.8427 20.128 23.184C18.8907 23.4187 17.8133 23.952 16.896 24.784C15.9787 25.5947 15.072 26.576 14.176 27.728C12.448 26.9813 10.4427 26.448 8.16 26.128C5.89867 25.8293 3.47733 25.68 0.896 25.68C1.13067 25.552 1.42933 25.3173 1.792 24.976C2.15467 24.6133 2.50667 24.208 2.848 23.76C3.18933 23.2907 3.47733 22.8107 3.712 22.32C3.968 21.808 4.096 21.3387 4.096 20.912C4.096 20.4853 4.08533 20.0053 4.064 19.472C4.064 18.9387 4.02133 18.3947 3.936 17.84C3.872 17.2853 3.75467 16.752 3.584 16.24C3.43467 15.7067 3.22133 15.248 2.944 14.864C3.17867 14.608 3.37067 14.224 3.52 13.712C3.66933 13.1787 3.776 12.6027 3.84 11.984C3.92533 11.344 3.97867 10.6933 4 10.032C4.02133 9.34933 4.032 8.73067 4.032 8.176C4.032 7.49333 3.97867 6.90667 3.872 6.416C3.76533 5.92533 3.57333 5.47733 3.296 5.072C3.04 4.64533 2.67733 4.22933 2.208 3.824C1.76 3.41867 1.184 2.94933 0.48 2.416C1.99467 2.416 3.34933 2.416 4.544 2.416C5.76 2.39467 6.88 2.37333 7.904 2.352C8.928 2.30933 9.888 2.256 10.784 2.192C11.68 2.10667 12.576 1.98933 13.472 1.84C14.1333 2.24533 14.976 2.66133 16 3.088C17.024 3.51467 18.048 3.86667 19.072 4.144ZM15.488 21.392C15.488 20.9227 15.52 20.304 15.584 19.536C15.648 18.7467 15.7333 17.9573 15.84 17.168C15.968 16.3573 16.1067 15.6 16.256 14.896C16.4267 14.192 16.608 13.6693 16.8 13.328C16.6507 12.9013 16.48 12.368 16.288 11.728C16.096 11.0667 15.904 10.384 15.712 9.68C15.52 8.95467 15.3493 8.24 15.2 7.536C15.0507 6.81067 14.944 6.17067 14.88 5.616C14.5387 5.616 14.1013 5.63733 13.568 5.68C13.056 5.70133 12.4907 5.75467 11.872 5.84C11.2747 5.904 10.6667 6 10.048 6.128C9.45067 6.23466 8.896 6.37333 8.384 6.544C8.34133 7.504 8.30933 8.61333 8.288 9.872C8.26667 11.1093 8.256 12.432 8.256 13.84C8.256 15.2053 8.27733 16.6453 8.32 18.16C8.384 19.6533 8.48 21.2 8.608 22.8C8.82133 22.864 9.09867 22.9387 9.44 23.024C9.80267 23.1093 10.176 23.1947 10.56 23.28C10.944 23.3653 11.3173 23.4507 11.68 23.536C12.064 23.6 12.3947 23.6533 12.672 23.696C12.9707 23.2053 13.376 22.7573 13.888 22.352C14.4 21.9467 14.9333 21.6267 15.488 21.392ZM28.2288 22.992C28.6981 23.0347 29.1781 23.0667 29.6688 23.088C30.1808 23.1093 30.8101 23.2053 31.5568 23.376V18.864C30.9381 19.0987 30.3408 19.3013 29.7648 19.472C29.1888 19.6213 28.6981 19.7173 28.2928 19.76L28.2288 22.992ZM36.4848 12.784C36.1434 13.2747 35.9194 13.9253 35.8128 14.736C35.7274 15.5467 35.6848 16.7307 35.6848 18.288C35.6848 19.312 35.7061 20.1333 35.7488 20.752C35.8128 21.3493 35.8981 21.8293 36.0048 22.192C36.1114 22.5333 36.2608 22.7787 36.4528 22.928C36.6448 23.056 36.8794 23.152 37.1568 23.216V23.568C36.8581 23.6747 36.5381 23.8667 36.1968 24.144C35.8768 24.4 35.5568 24.688 35.2368 25.008C34.9168 25.328 34.6288 25.6587 34.3728 26C34.1168 26.3413 33.9248 26.64 33.7968 26.896C33.3488 26.5973 32.9434 26.2027 32.5808 25.712C32.2181 25.2213 31.9301 24.7307 31.7168 24.24L29.5088 26.896C28.6981 26.4053 27.8021 26.032 26.8208 25.776C25.8608 25.52 24.7621 25.3813 23.5247 25.36C23.7381 24.8053 23.8661 24.112 23.9088 23.28C23.9514 22.4267 23.9728 21.5733 23.9728 20.72C23.9728 20.208 23.9408 19.728 23.8768 19.28C23.8128 18.8107 23.7061 18.3947 23.5568 18.032C24.0261 18.096 24.5381 18.128 25.0928 18.128C25.6901 18.128 26.2981 18.1067 26.9168 18.064C27.5568 18 28.1648 17.9147 28.7408 17.808C29.3168 17.7013 29.8394 17.584 30.3088 17.456C30.7994 17.3067 31.2048 17.1467 31.5248 16.976V13.808C30.7994 14.128 30.0421 14.3947 29.2528 14.608C28.4634 14.8213 27.8128 14.928 27.3008 14.928C26.9381 14.928 26.5968 14.896 26.2768 14.832C25.9781 14.7467 25.7008 14.5973 25.4448 14.384C25.1888 14.1493 24.9541 13.8293 24.7408 13.424C24.5488 13.0187 24.3781 12.496 24.2288 11.856C24.3568 11.856 24.4421 11.8667 24.4848 11.888C24.5488 11.888 24.7088 11.888 24.9648 11.888C26.5008 11.888 27.8234 11.7493 28.9328 11.472C30.0421 11.1947 30.9061 10.8747 31.5248 10.512C32.2288 11.28 32.9541 11.856 33.7008 12.24C34.4688 12.6027 35.3968 12.784 36.4848 12.784ZM44.086 11.44V23.184C44.086 24.528 44.374 25.3067 44.95 25.52V26C44.2673 26.1067 43.6273 26.2347 43.03 26.384C42.4327 26.5333 41.814 26.704 41.174 26.896H41.014C40.2887 25.9147 39.926 24.7627 39.926 23.44V12.304L38.742 11.792V11.44C39.4887 11.3333 40.2993 11.1947 41.174 11.024C42.0487 10.832 42.8273 10.6507 43.51 10.48L44.086 11.44ZM39.03 5.2C39.3927 4.58133 39.83 3.97333 40.342 3.376C40.8753 2.75733 41.462 2.27733 42.102 1.936C42.23 2.10667 42.422 2.30933 42.678 2.544C42.9553 2.77866 43.2433 3.01333 43.542 3.248C43.862 3.48267 44.1607 3.70667 44.438 3.92C44.7367 4.112 44.9607 4.25067 45.11 4.336C44.3847 4.848 43.766 5.34933 43.254 5.84C42.7633 6.30933 42.3367 6.90667 41.974 7.632C41.846 7.48267 41.6433 7.30133 41.366 7.088C41.11 6.85333 40.8327 6.61867 40.534 6.384C40.2353 6.14933 39.9473 5.92533 39.67 5.712C39.3927 5.49867 39.1793 5.328 39.03 5.2ZM46.7948 26.672C47.3494 26.3947 47.7654 25.936 48.0428 25.296C48.3201 24.656 48.4588 23.9093 48.4588 23.056V6.64C48.4588 6.10667 48.4481 5.62667 48.4268 5.2C48.4054 4.77333 48.3521 4.37867 48.2668 4.016C48.2028 3.65333 48.1068 3.30133 47.9788 2.96C47.8508 2.61867 47.6908 2.26667 47.4988 1.904C47.9254 2.05333 48.4268 2.128 49.0028 2.128C49.7068 2.128 50.4428 2.01067 51.2108 1.776C52.0001 1.54133 52.8428 1.21067 53.7388 0.783998C53.3121 1.296 53.0134 1.97867 52.8428 2.832C52.6934 3.68533 52.6188 4.66667 52.6188 5.776V21.264C52.6188 22.1387 52.6508 22.864 52.7148 23.44C52.7788 24.016 52.8854 24.528 53.0348 24.976C53.2054 25.424 53.4401 25.8507 53.7388 26.256C54.0374 26.6827 54.4108 27.184 54.8588 27.76L54.6667 28.048C54.0908 27.7707 53.6108 27.5467 53.2268 27.376C52.8428 27.2267 52.5121 27.088 52.2348 26.96C51.9788 26.832 51.7441 26.6933 51.5308 26.544C51.3388 26.416 51.1361 26.2347 50.9227 26C50.3041 26.256 49.6321 26.4693 48.9068 26.64C48.2028 26.8107 47.5094 26.896 46.8268 26.896L46.7948 26.672ZM55.5783 11.824C56.0263 11.7813 56.5276 11.7173 57.0823 11.632C57.6369 11.5253 58.1916 11.408 58.7463 11.28C59.3009 11.152 59.8129 11.024 60.2823 10.896C60.7516 10.7467 61.1249 10.608 61.4023 10.48C61.3596 10.8427 61.3169 11.1733 61.2743 11.472C61.2529 11.7707 61.2316 12.0907 61.2103 12.432C61.2103 12.7733 61.1996 13.1467 61.1783 13.552C61.1783 13.9573 61.1783 14.4373 61.1783 14.992V20.816L62.5223 21.84L65.5943 20.496V16.144C65.5943 15.4187 65.5729 14.8213 65.5303 14.352C65.5089 13.8827 65.4449 13.5093 65.3383 13.232C65.2316 12.9547 65.0823 12.752 64.8903 12.624C64.7196 12.4747 64.4743 12.3573 64.1543 12.272V11.856C65.1783 11.792 66.1809 11.6427 67.1623 11.408C68.1649 11.1733 69.0289 10.8747 69.7543 10.512V25.232C69.7543 26.576 69.7649 27.696 69.7863 28.592C69.8289 29.5093 69.9036 30.192 70.0103 30.64C69.4129 30.64 68.7623 30.7253 68.0583 30.896C67.3543 31.088 66.6396 31.344 65.9143 31.664C65.2103 31.984 64.5169 32.3573 63.8343 32.784C63.1516 33.232 62.5436 33.712 62.0103 34.224C60.7943 33.328 59.6636 32.6773 58.6183 32.272C57.5729 31.8667 56.4743 31.664 55.3223 31.664C55.4929 30.768 55.7596 29.9467 56.1223 29.2C56.5063 28.4747 56.9436 27.8773 57.4343 27.408C57.6689 27.4293 58.0316 27.536 58.5223 27.728C59.0343 27.9413 59.5889 28.208 60.1863 28.528C60.7836 28.848 61.3703 29.1893 61.9463 29.552C62.5436 29.9147 63.0556 30.2667 63.4823 30.608L65.8823 29.84C65.8396 29.5627 65.7969 29.2533 65.7543 28.912C65.7329 28.592 65.7009 28.1653 65.6583 27.632C65.6369 27.12 65.6156 26.48 65.5943 25.712C65.5943 24.9227 65.5943 23.9307 65.5943 22.736C64.9756 23.056 64.4316 23.3547 63.9623 23.632C63.4929 23.9093 63.0663 24.1867 62.6823 24.464C62.2983 24.7413 61.9356 25.0293 61.5943 25.328C61.2743 25.6053 60.9436 25.9147 60.6023 26.256C60.1756 25.872 59.7916 25.552 59.4503 25.296C59.1303 25.0187 58.8103 24.7733 58.4903 24.56C58.1916 24.3467 57.8823 24.1547 57.5623 23.984C57.2636 23.792 56.9223 23.5893 56.5383 23.376C56.6236 23.2693 56.6983 23.0027 56.7623 22.576C56.8476 22.128 56.9223 21.6053 56.9863 21.008C57.0503 20.3893 57.0929 19.728 57.1143 19.024C57.1569 18.32 57.1783 17.648 57.1783 17.008C57.1783 16.2827 57.1463 15.6533 57.0823 15.12C57.0396 14.5867 56.9543 14.1387 56.8263 13.776C56.6983 13.392 56.5276 13.0827 56.3143 12.848C56.1223 12.592 55.8663 12.368 55.5463 12.176L55.5783 11.824ZM95.829 21.84C95.7223 19.728 95.637 17.7013 95.573 15.76C95.5303 13.8187 95.4877 12.1013 95.445 10.608C95.4237 9.11467 95.4023 7.92 95.381 7.024C95.381 6.128 95.381 5.66933 95.381 5.648C95.2743 4.34667 94.6023 3.45067 93.365 2.96C93.5783 2.98133 93.781 2.992 93.973 2.992C94.1863 2.992 94.3997 2.992 94.613 2.992C95.573 2.992 96.4477 2.94933 97.237 2.864C98.0477 2.75733 98.7837 2.65067 99.445 2.544C100.106 2.43733 100.704 2.34133 101.237 2.256C101.792 2.14933 102.304 2.096 102.773 2.096C103.029 2.096 103.274 2.128 103.509 2.192C102.229 3.10933 101.237 4.112 100.533 5.2C99.8503 6.26667 99.509 7.472 99.509 8.816C99.509 10.3947 100.032 12.1867 101.077 14.192C100.586 15.4293 100.181 16.7627 99.861 18.192C99.5623 19.6213 99.413 21.0507 99.413 22.48C99.413 23.0987 99.4343 23.8133 99.477 24.624C99.541 25.4133 99.6477 26.192 99.797 26.96C100.437 27.6427 101.002 28.176 101.493 28.56C102.005 28.944 102.464 29.232 102.869 29.424C103.274 29.616 103.648 29.744 103.989 29.808C104.352 29.872 104.704 29.9253 105.045 29.968L104.213 27.856C104.938 28.2613 105.664 28.6453 106.389 29.008C107.114 29.3707 107.861 29.6907 108.629 29.968C109.397 30.2453 110.197 30.4587 111.029 30.608C111.882 30.7787 112.789 30.864 113.749 30.864C114.389 30.864 115.05 30.8427 115.733 30.8C116.437 30.7573 117.173 30.6827 117.941 30.576C116.064 31.3227 114.293 31.856 112.629 32.176C110.986 32.5173 109.429 32.688 107.957 32.688C106.08 32.688 104.341 32.4213 102.741 31.888C101.162 31.3547 99.6903 30.6293 98.325 29.712C96.981 28.816 95.7437 27.7707 94.613 26.576C93.5037 25.4027 92.4797 24.1653 91.541 22.864C90.6237 21.5413 89.7917 20.208 89.045 18.864C88.3197 17.52 87.669 16.24 87.093 15.024V18.288C87.093 19.6107 87.1357 20.72 87.221 21.616C87.3063 22.512 87.445 23.2907 87.637 23.952C87.829 24.6133 88.0743 25.2 88.373 25.712C88.6717 26.2027 89.0343 26.704 89.461 27.216C88.9917 27.088 88.5757 26.96 88.213 26.832C87.8717 26.704 87.5303 26.5547 87.189 26.384C86.869 26.2133 86.5277 26 86.165 25.744C85.8237 25.488 85.4183 25.168 84.949 24.784C84.373 25.808 83.605 26.6933 82.645 27.44C81.685 28.1867 80.3943 28.8267 78.773 29.36C79.413 28.7413 80.0103 28.0373 80.565 27.248C81.1197 26.48 81.5997 25.6587 82.005 24.784C82.4317 23.888 82.7623 22.9707 82.997 22.032C83.253 21.0933 83.381 20.144 83.381 19.184C83.381 18.288 83.2637 17.424 83.029 16.592C82.8157 15.76 82.453 14.96 81.941 14.192C82.9863 12.1867 83.509 10.3947 83.509 8.816C83.509 7.472 83.157 6.26667 82.453 5.2C81.7703 4.112 80.789 3.10933 79.509 2.192C79.7223 2.128 79.9677 2.096 80.245 2.096C80.6717 2.096 81.1517 2.14933 81.685 2.256C82.2397 2.34133 82.837 2.43733 83.477 2.544C84.1383 2.65067 84.8423 2.75733 85.589 2.864C86.357 2.94933 87.1783 2.992 88.053 2.992C88.2663 2.992 88.469 2.992 88.661 2.992C88.8743 2.992 89.0877 2.98133 89.301 2.96C88.149 3.408 87.4877 4.19733 87.317 5.328C87.701 6.288 88.1597 7.39733 88.693 8.656C89.2477 9.91467 89.8557 11.2373 90.517 12.624C91.1997 14.0107 91.9357 15.4187 92.725 16.848C93.5143 18.256 94.3357 19.6 95.189 20.88L95.829 21.84ZM110.427 27.024C110.022 26.7253 109.52 26.448 108.923 26.192C108.326 25.936 107.707 25.7227 107.067 25.552C106.448 25.36 105.84 25.2107 105.243 25.104C104.667 24.9973 104.187 24.944 103.803 24.944C103.974 24.6667 104.123 24.2827 104.251 23.792C104.379 23.28 104.475 22.736 104.539 22.16C104.624 21.5627 104.678 20.9547 104.699 20.336C104.742 19.7173 104.763 19.152 104.763 18.64C104.763 17.3387 104.678 16.2613 104.507 15.408C104.358 14.5333 104.208 13.8507 104.059 13.36C104.976 13.1893 105.808 12.8587 106.555 12.368C107.323 11.8773 108.08 11.2587 108.827 10.512C109.702 10.6827 110.779 10.832 112.059 10.96C113.339 11.0667 114.608 11.1413 115.867 11.184C115.803 11.568 115.771 12.048 115.771 12.624C115.771 13.072 115.792 13.5627 115.835 14.096C115.878 14.608 115.931 15.12 115.995 15.632C116.059 16.144 116.144 16.6347 116.251 17.104C116.358 17.5733 116.475 17.9787 116.603 18.32C115.302 18.4267 113.979 18.576 112.635 18.768C111.291 18.9387 109.979 19.1307 108.699 19.344C108.678 19.9627 108.635 20.5707 108.571 21.168C108.507 21.7653 108.454 22.288 108.411 22.736C108.667 22.8427 108.987 22.9387 109.371 23.024C109.776 23.1093 110.203 23.1947 110.651 23.28C111.099 23.344 111.536 23.408 111.963 23.472C112.39 23.5147 112.752 23.5467 113.051 23.568C113.158 22.9067 113.414 22.3413 113.819 21.872C114.246 21.4027 114.96 21.0187 115.963 20.72C115.942 20.976 115.931 21.232 115.931 21.488C115.931 21.7227 115.931 21.9573 115.931 22.192C115.931 22.9173 115.952 23.4933 115.995 23.92C116.059 24.3253 116.166 24.7307 116.315 25.136C115.91 25.1787 115.43 25.264 114.875 25.392C114.32 25.4987 113.766 25.648 113.211 25.84C112.656 26.0107 112.123 26.192 111.611 26.384C111.12 26.5973 110.726 26.8107 110.427 27.024ZM108.379 13.392C108.486 14.288 108.56 15.0773 108.603 15.76C108.667 16.4427 108.71 17.072 108.731 17.648L112.475 16.72C112.368 16.2933 112.272 15.8453 112.187 15.376C112.123 14.9067 112.091 14.4267 112.091 13.936C111.6 13.936 111.003 13.8933 110.299 13.808C109.616 13.7013 108.976 13.5627 108.379 13.392ZM133.305 26.896C132.9 26.64 132.516 26.3947 132.153 26.16C131.79 25.9467 131.428 25.744 131.065 25.552C130.702 25.3387 130.318 25.1253 129.913 24.912C129.529 24.6773 129.113 24.432 128.665 24.176H128.441L125.721 26.896H125.401C124.782 26.4693 123.982 26.0533 123.001 25.648C122.02 25.2427 121.049 24.912 120.089 24.656C120.132 24.4427 120.174 24.1013 120.217 23.632C120.26 23.1413 120.281 22.416 120.281 21.456C120.281 19.4507 120.164 17.7547 119.929 16.368C119.694 14.9813 119.321 13.84 118.809 12.944L117.881 12.752V12.208C118.329 12.144 118.82 12.048 119.353 11.92C119.886 11.792 120.388 11.6533 120.857 11.504C121.348 11.3547 121.785 11.1947 122.169 11.024C122.553 10.8533 122.841 10.6827 123.033 10.512C123.353 10.96 123.63 12.0053 123.865 13.648C124.1 15.2693 124.27 17.456 124.377 20.208L124.473 22.992L126.105 23.856H126.297L127.641 22.48C127.705 22.1387 127.748 21.7973 127.769 21.456C127.79 21.0933 127.801 20.5387 127.801 19.792C127.801 18 127.748 16.5707 127.641 15.504C127.556 14.4373 127.406 13.584 127.193 12.944L126.265 12.752V12.208C126.713 12.144 127.204 12.048 127.737 11.92C128.27 11.792 128.772 11.6533 129.241 11.504C129.732 11.3547 130.169 11.1947 130.553 11.024C130.937 10.8533 131.225 10.6827 131.417 10.512C131.588 11.1733 131.705 11.984 131.769 12.944C131.833 13.8827 131.865 15.056 131.865 16.464C131.865 17.0613 131.854 17.6907 131.833 18.352C131.833 18.992 131.822 19.6 131.801 20.176C131.78 20.752 131.758 21.264 131.737 21.712C131.716 22.16 131.694 22.48 131.673 22.672L133.529 24.112H133.721C133.934 23.7067 134.148 23.152 134.361 22.448C134.574 21.744 134.756 20.976 134.905 20.144C135.076 19.2907 135.214 18.416 135.321 17.52C135.428 16.624 135.481 15.7813 135.481 14.992C135.481 14.096 135.396 13.424 135.225 12.976C135.076 12.528 134.798 12.1973 134.393 11.984L134.425 11.472C136.217 11.344 137.902 11.024 139.481 10.512C139.438 10.576 139.417 10.6933 139.417 10.864C139.417 11.7173 139.46 12.4427 139.545 13.04C139.63 13.616 139.822 14.0533 140.121 14.352L137.305 23.856L133.625 26.896H133.305ZM146.861 13.104C146.819 13.4453 146.787 13.776 146.765 14.096C146.765 14.416 146.765 14.7893 146.765 15.216C146.765 15.6427 146.776 16.0693 146.797 16.496C146.819 16.9227 146.851 17.3067 146.893 17.648C147.299 17.4987 147.715 17.3707 148.141 17.264C148.589 17.1573 149.08 17.0613 149.613 16.976C150.168 16.8907 150.787 16.816 151.469 16.752C152.152 16.688 152.952 16.624 153.869 16.56C153.805 17.3067 153.773 18.3947 153.773 19.824C153.773 21.04 153.795 22.128 153.837 23.088C153.88 24.0267 153.955 24.7413 154.061 25.232C153.4 25.232 152.728 25.2747 152.045 25.36C151.363 25.4453 150.712 25.5627 150.093 25.712C149.475 25.8613 148.899 26.0427 148.365 26.256C147.832 26.4693 147.384 26.704 147.021 26.96C146.765 26.7253 146.477 26.5227 146.157 26.352C145.859 26.1813 145.496 26.0427 145.069 25.936C144.643 25.808 144.141 25.712 143.565 25.648C142.989 25.5627 142.307 25.4987 141.517 25.456C141.56 24.7947 141.688 24.1227 141.901 23.44C142.136 22.736 142.424 22.1707 142.765 21.744C143.256 21.744 144.024 21.9253 145.069 22.288C146.115 22.6507 147.501 23.216 149.229 23.984C149.357 23.3013 149.453 22.6827 149.517 22.128C149.581 21.552 149.613 20.9547 149.613 20.336C149.613 19.952 149.613 19.6747 149.613 19.504C149.613 19.3333 149.603 19.1733 149.581 19.024C148.643 19.1093 147.555 19.2693 146.317 19.504C145.08 19.7173 143.917 19.9733 142.829 20.272C142.915 19.3547 142.968 18.6507 142.989 18.16C143.011 17.648 143.021 17.1893 143.021 16.784C143.021 15.824 142.968 14.9813 142.861 14.256C142.776 13.5307 142.627 12.8587 142.413 12.24C143.224 12.24 144.099 12.1013 145.037 11.824C145.976 11.5467 147.149 11.1093 148.557 10.512C149.901 11.1947 151.907 11.632 154.573 11.824C154.189 12.7413 153.752 13.4133 153.261 13.84C152.771 14.2453 152.163 14.448 151.437 14.448C151.117 14.448 150.755 14.416 150.349 14.352C149.944 14.288 149.528 14.192 149.101 14.064C148.696 13.936 148.291 13.7973 147.885 13.648C147.501 13.4773 147.16 13.296 146.861 13.104Z" fill="#222222"/>
</svg>
